<?xml version="1.0" encoding="UTF-8" standalone="no"?>
<svg
   xmlns:dc="http://purl.org/dc/elements/1.1/"
   xmlns:cc="http://creativecommons.org/ns#"
   xmlns:rdf="http://www.w3.org/1999/02/22-rdf-syntax-ns#"
   xmlns:svg="http://www.w3.org/2000/svg"
   xmlns="http://www.w3.org/2000/svg"
   viewBox="0 0 3333.3333 3333.3333"
   height="3333.3333"
   width="3333.3333"
   xml:space="preserve"
   id="svg2"
   version="1.1"><metadata
     id="metadata8"><rdf:RDF><cc:Work
         rdf:about=""><dc:format>image/svg+xml</dc:format><dc:type
           rdf:resource="http://purl.org/dc/dcmitype/StillImage" /></cc:Work></rdf:RDF></metadata><defs
     id="defs6" /><g
     transform="matrix(1.3333333,0,0,-1.3333333,0,3333.3333)"
     id="g10"><g
       transform="scale(0.1)"
       id="g12"><g
         transform="scale(1.53374)"
         id="g14"><path
           id="path16"
           style="fill:#ffffff;fill-opacity:1;fill-rule:nonzero;stroke:none"
           d="M 16300,0 H 0 V 16300 H 16300 V 0" /></g><path
         id="path18"
         style="fill:#172533;fill-opacity:1;fill-rule:nonzero;stroke:none"
         d="m 5147.29,9399.3 v -292.9 h -624.77 v -334 h 482.58 v -280 h -482.58 v -616.2 h -368.39 v 1523.1 h 993.16" /><path
         id="path20"
         style="fill:#172533;fill-opacity:1;fill-rule:nonzero;stroke:none"
         d="m 5902.38,8963.1 c -71.09,-78.3 -106.64,-185 -106.64,-319.9 0,-133.6 35.55,-239.9 106.64,-318.9 71.1,-79 166.97,-118.5 287.61,-118.5 119.2,0 214.7,39.5 286.53,118.5 71.81,79 107.72,185.3 107.72,318.9 0,133.5 -35.54,239.8 -106.64,318.8 -71.1,79 -166.97,118.5 -287.61,118.5 -120.64,0 -216.51,-39.2 -287.61,-117.4 z m 678.63,359.8 c 117.04,-66.8 209.31,-159.5 276.84,-277.9 67.49,-118.5 101.25,-252.5 101.25,-401.8 0,-149.4 -34.13,-283.7 -102.33,-402.9 -68.23,-119.2 -160.87,-212.2 -277.91,-279 -117.08,-66.8 -246.68,-100.2 -388.87,-100.2 -142.19,0 -271.82,33.4 -388.86,100.2 -117.08,66.8 -209.71,159.8 -277.91,279 -68.23,119.2 -102.34,253.5 -102.34,402.9 0,149.3 34.11,283.3 102.34,401.8 68.2,118.4 160.83,211.1 277.91,277.9 117.04,66.7 246.67,100.1 388.86,100.1 143.6,0 273.95,-33.4 391.02,-100.1" /><path
         id="path22"
         style="fill:#172533;fill-opacity:1;fill-rule:nonzero;stroke:none"
         d="m 7731.41,8963.1 c -71.09,-78.3 -106.64,-185 -106.64,-319.9 0,-133.6 35.55,-239.9 106.64,-318.9 71.09,-79 166.97,-118.5 287.61,-118.5 119.2,0 214.7,39.5 286.53,118.5 71.8,79 107.72,185.3 107.72,318.9 0,133.5 -35.55,239.8 -106.64,318.8 -71.1,79 -166.97,118.5 -287.61,118.5 -120.64,0 -216.52,-39.2 -287.61,-117.4 z m 678.63,359.8 c 117.04,-66.8 209.31,-159.5 276.84,-277.9 67.49,-118.5 101.25,-252.5 101.25,-401.8 0,-149.4 -34.14,-283.7 -102.33,-402.9 -68.24,-119.2 -160.87,-212.2 -277.91,-279 -117.08,-66.8 -246.68,-100.2 -388.87,-100.2 -142.19,0 -271.82,33.4 -388.86,100.2 -117.08,66.8 -209.72,159.8 -277.91,279 -68.24,119.2 -102.34,253.5 -102.34,402.9 0,149.3 34.1,283.3 102.34,401.8 68.19,118.4 160.83,211.1 277.91,277.9 117.04,66.7 246.67,100.1 388.86,100.1 143.6,0 273.94,-33.4 391.02,-100.1" /><path
         id="path24"
         style="fill:#172533;fill-opacity:1;fill-rule:nonzero;stroke:none"
         d="m 10002.1,8320 c 79.7,76.1 119.6,183.1 119.6,321 0,137.9 -39.9,244.9 -119.6,321 -79.73,76.1 -191.42,114.2 -335.02,114.2 h -174.51 v -870.4 h 174.51 c 143.6,0 255.29,38.1 335.02,114.2 z m 396.4,-76.5 c -63.9,-115.6 -155.9,-205.7 -275.8,-270.3 -119.9,-64.7 -261.02,-97 -423.31,-97 h -575.21 v 1523.1 h 575.21 c 163.74,0 305.21,-31.6 424.41,-94.7 119.2,-63.3 210.8,-152.3 274.7,-267.2 63.9,-114.9 95.9,-247 95.9,-396.4 0,-149.4 -32,-281.9 -95.9,-397.5" /><path
         id="path26"
         style="fill:#ee2432;fill-opacity:1;fill-rule:nonzero;stroke:none"
         d="m 12425.7,8083 c -40.9,-67.5 -101.2,-121.4 -181,-161.5 -79.7,-40.3 -176.3,-60.4 -289.7,-60.4 -171,0 -311.7,41.7 -422.3,125 -110.6,83.3 -170.9,199.6 -180.9,349 h 392 c 5.8,-57.5 26.2,-102.7 61.4,-135.7 35.2,-33.1 80.1,-49.6 134.7,-49.6 47.4,0 84.7,12.9 112,38.8 27.3,25.8 41,60.3 41,103.4 0,38.8 -12.6,71.1 -37.7,96.9 -25.2,25.9 -56.4,47.1 -93.8,63.6 -37.3,16.5 -89,36.3 -155.1,59.2 -96.2,33.1 -174.8,65 -235.9,95.9 -61,30.9 -113.5,76.8 -157.2,137.9 -43.9,61 -65.8,140.4 -65.8,238.1 0,90.4 23,168.7 69,234.8 45.9,66 109.5,116.6 190.6,151.9 81.2,35.1 174.2,52.7 279,52.7 169.5,0 304.1,-40.2 404,-120.6 99.8,-80.4 156.2,-191 169.1,-331.8 h -398.6 c -7.2,50.3 -25.5,90.1 -54.9,119.6 -29.4,29.4 -69.3,44.2 -119.6,44.2 -43.1,0 -77.9,-11.5 -104.4,-34.5 -26.6,-23 -39.9,-56.8 -39.9,-101.3 0,-35.9 11.8,-66.4 35.5,-91.5 23.7,-25.2 53.5,-45.6 89.5,-61.4 35.8,-15.8 87.5,-35.9 155.1,-60.3 97.6,-33.1 177.3,-65.8 239.1,-98.1 61.7,-32.3 114.9,-79.3 159.4,-141.1 44.5,-61.7 66.8,-142.2 66.8,-241.3 0,-80.4 -20.5,-154.4 -61.4,-221.9" /><path
         id="path28"
         style="fill:#ee2432;fill-opacity:1;fill-rule:nonzero;stroke:none"
         d="m 13189.4,9106.4 v -318.9 h 514.9 v -277.9 h -514.9 v -338.2 h 579.5 V 7876.2 H 12821 v 1523.1 h 947.9 v -292.9 h -579.5" /><path
         id="path30"
         style="fill:#ee2432;fill-opacity:1;fill-rule:nonzero;stroke:none"
         d="m 14475.6,8703.5 h 228.3 c 73.3,0 127.1,16.1 161.6,48.5 34.5,32.3 51.7,80 51.7,143.2 0,60.3 -17.6,107.7 -52.8,142.2 -35.2,34.5 -88.7,51.7 -160.5,51.7 h -228.3 z m 413.6,-827.3 -329.6,575.2 h -84 v -575.2 h -368.4 v 1523.1 h 629 c 120.7,0 222.6,-20.8 305.9,-62.4 83.3,-41.7 145.8,-98.8 187.5,-171.3 41.6,-72.5 62.5,-155.5 62.5,-248.8 0,-110.6 -30.6,-204.7 -91.6,-282.2 -61.1,-77.6 -149.7,-130.8 -266.1,-159.5 l 362,-598.9 h -407.2" /><g
         transform="scale(1.04482)"
         id="g32"><path
           id="path34"
           style="fill:#ee2432;fill-opacity:1;fill-rule:nonzero;stroke:none"
           d="m 15209.2,8996.08 356.7,-1096.94 356.7,1096.94 h 377.4 l -507.3,-1457.76 h -455.6 l -505.2,1457.76 h 377.3" /></g><g
         transform="scale(1.08407)"
         id="g36"><path
           id="path38"
           style="fill:#ee2432;fill-opacity:1;fill-rule:nonzero;stroke:none"
           d="M 16300,8670.35 V 7265.37 h -339.8 v 1404.98 h 339.8" /></g><g
         transform="scale(1.19496)"
         id="g40"><path
           id="path42"
           style="fill:#ee2432;fill-opacity:1;fill-rule:nonzero;stroke:none"
           d="m 16093.5,7750.45 c 106.4,-85.36 175.2,-200.76 206.5,-346.21 h -326.3 c -24.1,58.92 -61.1,105.2 -110.9,138.84 -49.9,33.64 -109.1,50.46 -177.5,50.46 -90.3,0 -163,-33.06 -218.2,-99.17 -55.3,-66.11 -82.9,-154.4 -82.9,-264.94 0,-110.63 27.6,-198.67 82.9,-264.2 55.2,-65.52 127.9,-98.24 218.2,-98.24 68.4,0 127.6,16.82 177.5,50.54 49.8,33.56 86.8,79.26 110.9,137 h 326.3 c -31.3,-144.28 -100.1,-259.34 -206.5,-345.29 -106.3,-85.94 -240.6,-128.87 -402.9,-128.87 -123.8,0 -232.6,27.28 -326.3,82.01 -93.7,54.73 -166.2,131.3 -217.2,229.88 -51.2,98.5 -76.7,210.89 -76.7,337.17 0,126.19 25.5,238.5 76.7,337.08 51,98.58 123.5,175.15 217.2,229.88 93.7,54.65 202.5,82.01 326.3,82.01 162.3,0 296.6,-42.68 402.9,-127.95" /></g><g
         transform="scale(1.27374)"
         id="g44"><path
           id="path46"
           style="fill:#ee2432;fill-opacity:1;fill-rule:nonzero;stroke:none"
           d="M 15845,7149.36 V 6899 h 404.3 V 6680.82 H 15845 V 6415.3 h 455 v -231.76 h -744.2 v 1195.78 h 744.2 v -229.96 h -455" /></g><path
         id="path48"
         style="fill:#ee2432;fill-opacity:1;fill-rule:nonzero;stroke:none"
         d="m 8068.78,7245 v -100.9 h -175.61 v -534.9 h -126.98 v 534.9 H 7591.48 V 7245 h 477.3" /><path
         id="path50"
         style="fill:#ee2432;fill-opacity:1;fill-rule:nonzero;stroke:none"
         d="m 8816.25,6833.4 -93.66,268.4 -93.66,-268.4 z m 34.22,-96.3 h -254.86 l -45.03,-127.9 H 8416.4 l 234.15,628.6 h 144.99 l 233.24,-628.6 H 8894.6 l -44.13,127.9" /><path
         id="path52"
         style="fill:#ee2432;fill-opacity:1;fill-rule:nonzero;stroke:none"
         d="m 9908.64,7194.1 c 51.02,-38.1 83.75,-89.6 98.16,-154.4 h -133.28 c -12.61,28.8 -32.58,51.7 -59.89,68.9 -27.33,17.1 -59.59,25.6 -96.81,25.6 -36.63,0 -69.05,-8.4 -97.26,-25.2 -28.23,-16.8 -50.14,-40.8 -65.75,-72 -15.62,-31.3 -23.41,-67.9 -23.41,-109.9 0,-66.7 17.86,-118.6 53.58,-155.8 35.72,-37.2 84.5,-55.8 146.35,-55.8 45.62,0 84.79,13.5 117.52,40.5 32.72,27 53.88,64.5 63.49,112.6 H 9696.1 v 90.9 h 321.5 V 6837 c -9,-42 -26.56,-80.7 -52.68,-116.1 -26.11,-35.5 -60.34,-63.8 -102.66,-85.1 -42.33,-21.4 -90.82,-32 -145.44,-32 -62.45,0 -117.53,13.6 -165.26,41 -47.73,27.3 -84.65,65.4 -110.77,114.3 -26.11,49 -39.17,105 -39.17,168 0,63 13.06,119 39.17,167.9 26.12,49 62.89,87.2 110.32,114.9 47.43,27.6 102.36,41.4 164.81,41.4 77.44,0 141.68,-19.1 192.72,-57.2" /><path
         id="path54"
         style="fill:#ee2432;fill-opacity:1;fill-rule:nonzero;stroke:none"
         d="m 10564.2,6706.5 h 213.5 v -97.3 h -340.4 V 7245 h 126.9 v -538.5" /><path
         id="path56"
         style="fill:#ee2432;fill-opacity:1;fill-rule:nonzero;stroke:none"
         d="m 11304.5,7245 v -635.8 h -127 V 7245 h 127" /><path
         id="path58"
         style="fill:#ee2432;fill-opacity:1;fill-rule:nonzero;stroke:none"
         d="m 12282.5,6609.2 h -127 l -284.5,432.3 v -432.3 h -127 V 7245 h 127 l 284.5,-435.9 V 7245 h 127 v -635.8" /><path
         id="path60"
         style="fill:#ee2432;fill-opacity:1;fill-rule:nonzero;stroke:none"
         d="m 12849,7144.1 v -164.8 h 225.1 v -97.2 H 12849 V 6711 h 252.1 V 6609.2 H 12722 V 7245 h 379.1 V 7144.1 H 12849" /><path
         id="path62"
         style="fill:#ee2432;fill-opacity:1;fill-rule:nonzero;stroke:none"
         d="m 14566.3,7245 v -635.8 h -127.8 v 276.5 h -272 v -276.5 h -127 V 7245 h 127 v -257.6 h 272 V 7245 h 127.8" /><path
         id="path64"
         style="fill:#ee2432;fill-opacity:1;fill-rule:nonzero;stroke:none"
         d="m 15132.8,7144.1 v -164.8 h 225.1 v -97.2 h -225.1 V 6711 h 252.2 v -101.8 h -379.2 V 7245 h 379.2 v -100.9 h -252.2" /><path
         id="path66"
         style="fill:#ee2432;fill-opacity:1;fill-rule:nonzero;stroke:none"
         d="m 15929.8,6944.2 h 104.5 c 72.6,0 108.9,32.1 108.9,96.4 0,30.6 -8.8,54.4 -26.5,71.6 -17.8,17.1 -45.2,25.6 -82.4,25.6 h -104.5 z m 204.4,-335 -148.6,247.6 h -55.8 v -247.6 h -127 V 7245 h 242.3 c 73.8,0 130.1,-18 168.8,-54 38.7,-36.1 58.1,-83.5 58.1,-142.3 0,-48.1 -13.4,-88.3 -40.1,-120.7 -26.7,-32.4 -65.3,-54 -115.7,-64.8 l 158.5,-254 h -140.5" /><g
         transform="scale(1.04668)"
         id="g68"><path
           id="path70"
           style="fill:#ee2432;fill-opacity:1;fill-rule:nonzero;stroke:none"
           d="m 16059.1,6825.48 v -157.45 h 215.1 v -92.86 h -215.1 v -163.48 h 240.9 v -97.25 h -362.2 v 607.44 h 362.2 v -96.4 h -240.9" /></g><path
         id="path72"
         style="fill:#172533;fill-opacity:1;fill-rule:nonzero;stroke:none"
         d="m 11662.4,13508.1 c 11,44.9 23.7,90.6 38,136.4 -54.6,-36.8 -103.8,-76 -146.3,-117 -347.5,-334 -300.1,-793.3 111,-1102.1 38.8,-29.3 80.9,-57.1 126.3,-83.3 -10.9,22.1 -20.8,44.4 -30.1,66.6 -157.6,357.8 -191,716.4 -98.9,1099.4" /><g
         transform="scale(1.16103)"
         id="g74"><path
           id="path76"
           style="fill:#ee2432;fill-opacity:1;fill-rule:nonzero;stroke:none"
           d="m 14600.7,11016 c 0,-637.8 -256.6,-1130.16 -769.8,-1477.09 -513.1,-346.41 -1255,-519.62 -2225.8,-519.62 H 8632.74 c -264.79,0 -505.04,107.41 -678.27,281.04 -173.65,173.29 -281.09,413.08 -281.09,677.85 -313.38,-117.66 -715.42,-663.55 -740.34,-697.49 173.23,333.85 412.66,665.62 740.34,930.41 464.54,374.6 1107.24,613.7 1995.85,529.5 227.21,-378.4 564.67,-506.7 1053.27,-471.6 530,38.9 1537.5,157 1713.6,177.8 18,2.4 35.5,4.5 52.7,9.4 127.5,35.1 212.5,129.9 252.5,290.9 -688.4,-19.6 -1364.2,-40.4 -2039.6,-54.7 -93.1,-2.1 -242.7,-38 -227.6,127 11.5,125.8 145.1,84.6 225.6,87 585.1,18.4 1170.9,28.3 1756.4,46.3 103,2.4 261.5,-49.5 240.3,149.5 -16.8,165.4 -149.1,102.5 -243.1,105 -583.9,15 -1167.8,-58.5 -1753.6,-3.3 -110.3,10.2 -185.1,13.9 -183.5,118.1 2.1,122.1 109.9,67.8 178.6,69 570.8,12.3 1141.5,21.2 1711.9,38.4 103.8,2.9 281,-55.1 288.5,89 10.1,207.6 -181.1,169.6 -322.4,165.6 -546.3,-13.1 -1092.9,-29.5 -1639.6,-37.2 -104.2,-1.7 -281.9,-78.9 -291.7,86.2 -9.4,158.9 172,120.1 279.8,123.3 559.3,17.3 1119.5,23.8 1678.4,42.1 100.5,3.3 269.3,-58.3 264,130.4 -3.7,142.6 -147.5,119.7 -245.5,126.7 -610.9,43.3 -1221.3,95.1 -1832.5,120.9 -467.8,19.2 -829.05,-195.7 -997.35,-640.2 -0.43,0 -0.43,-0.4 -0.77,-0.4 -452.36,-39.2 -1238.42,-172.9 -1914.2,-615.8 -275.79,-180.5 -532.79,-412.2 -741.56,-710.5 0,0 108.67,519.3 741.56,921.4 V 13107 c -192.04,24.1 -724.81,-353 -741.16,-364.4 203.89,218.1 447.8,413.4 741.16,567.5 475.16,249.6 1078.99,391.8 1845.89,352.6 251.33,-414.3 695.03,-536.9 1193.53,-536.9 686.4,0.8 1230.2,298.3 1640.8,844.9 169.1,226 165.1,456.4 16.3,691.3 -476.4,752.2 -1834,1031.7 -2563.38,517.3 -124.2,-87.9 -284.75,-212.1 -307.66,-341.6 -6.11,-32.3 -12.66,-61.7 -20.84,-89 -190.01,-18 -992,-113.2 -1804.64,-513.2 -252.1,-124.2 -505,-277.8 -741.16,-467.4 9.4,13.9 286.82,421.2 640.24,616.5 33.91,17.2 67,33.1 100.92,49 0,1030.9 835.53,1866.4 1866.39,1866.4 h 1857.33 c 929.1,0 1636.4,-171.6 2122.1,-514.8 485,-343.6 728.1,-806.1 728.1,-1388.7 0,0 60,-678.3 -469.8,-1208.6 -1.7,-2 -3.7,-4.1 -5.8,-5.7 -299.1,-296.6 -784,-545.9 -1569.3,-601.9 0,0 772.2,-93.5 1374,104.3 272.6,-139 496.4,-322.4 670.9,-550.4 235.3,-308.4 353.4,-681.5 353.4,-1118.2" /></g><g
         transform="scale(1.08261)"
         id="g78"><path
           id="path80"
           style="fill:#172533;fill-opacity:1;fill-rule:nonzero;stroke:none"
           d="m 12973.4,15437.5 c -303.8,564.3 -916.9,862.5 -1533.2,794.1 -521.8,-58.3 -818.8,-273.4 -951.2,-722.4 -1.2,-4.8 -2.9,-9.5 -4.1,-14.3 2.6,1.5 5,3.3 7.7,4.8 835.9,523.4 1641.6,446.6 2480.8,-62.2" /></g></g></g></svg>