<svg width="500" height="500" viewBox="0 0 500 500" fill="none" xmlns="http://www.w3.org/2000/svg">
<path d="M114.425 410V368.7H128.939C131.85 368.7 134.249 369.172 136.137 370.116C138.064 371.021 139.5 372.279 140.444 373.892C141.388 375.465 141.86 377.235 141.86 379.202C141.86 381.326 141.388 383.096 140.444 384.512C139.539 385.928 138.34 387.01 136.845 387.757C135.39 388.504 133.836 388.957 132.184 389.114L133.01 388.524C134.78 388.563 136.412 389.035 137.907 389.94C139.402 390.845 140.582 392.064 141.447 393.598C142.352 395.132 142.804 396.843 142.804 398.731C142.804 400.816 142.293 402.723 141.27 404.454C140.247 406.145 138.733 407.502 136.727 408.525C134.76 409.508 132.322 410 129.411 410H114.425ZM119.381 405.87H128.88C131.673 405.87 133.836 405.221 135.37 403.923C136.943 402.586 137.73 400.737 137.73 398.377C137.73 396.056 136.924 394.208 135.311 392.831C133.738 391.415 131.555 390.707 128.762 390.707H119.381V405.87ZM119.381 386.754H128.585C131.26 386.754 133.285 386.125 134.662 384.866C136.078 383.607 136.786 381.896 136.786 379.733C136.786 377.648 136.078 375.977 134.662 374.718C133.285 373.459 131.201 372.83 128.408 372.83H119.381V386.754ZM150.152 410V380.264H155.108V410H150.152ZM152.63 373.951C151.646 373.951 150.82 373.636 150.152 373.007C149.522 372.338 149.208 371.512 149.208 370.529C149.208 369.546 149.522 368.759 150.152 368.169C150.82 367.54 151.646 367.225 152.63 367.225C153.574 367.225 154.38 367.54 155.049 368.169C155.717 368.759 156.052 369.546 156.052 370.529C156.052 371.512 155.717 372.338 155.049 373.007C154.38 373.636 153.574 373.951 152.63 373.951ZM175.064 410.708C172.586 410.708 170.422 410.295 168.574 409.469C166.764 408.643 165.309 407.502 164.208 406.047C163.146 404.552 162.497 402.802 162.261 400.796H167.335C167.531 401.819 167.944 402.763 168.574 403.628C169.203 404.493 170.049 405.201 171.111 405.752C172.212 406.263 173.549 406.519 175.123 406.519C176.499 406.519 177.64 406.322 178.545 405.929C179.449 405.496 180.118 404.926 180.551 404.218C181.023 403.51 181.259 402.743 181.259 401.917C181.259 400.698 180.964 399.773 180.374 399.144C179.823 398.515 178.997 398.023 177.896 397.669C176.794 397.276 175.457 396.941 173.884 396.666C172.586 396.43 171.307 396.115 170.049 395.722C168.79 395.329 167.669 394.817 166.686 394.188C165.702 393.519 164.916 392.713 164.326 391.769C163.775 390.825 163.5 389.665 163.5 388.288C163.5 386.597 163.932 385.102 164.798 383.804C165.663 382.467 166.902 381.424 168.515 380.677C170.167 379.93 172.074 379.556 174.238 379.556C177.424 379.556 180 380.323 181.967 381.857C183.933 383.391 185.094 385.613 185.448 388.524H180.551C180.354 387.029 179.705 385.869 178.604 385.043C177.542 384.178 176.067 383.745 174.179 383.745C172.33 383.745 170.914 384.119 169.931 384.866C168.987 385.613 168.515 386.597 168.515 387.816C168.515 388.603 168.77 389.311 169.282 389.94C169.832 390.53 170.619 391.041 171.642 391.474C172.704 391.907 174.002 392.261 175.536 392.536C177.502 392.89 179.292 393.362 180.905 393.952C182.517 394.542 183.815 395.427 184.799 396.607C185.821 397.748 186.333 399.38 186.333 401.504C186.333 403.353 185.861 404.965 184.917 406.342C184.012 407.719 182.714 408.8 181.023 409.587C179.331 410.334 177.345 410.708 175.064 410.708ZM203.826 410C202.056 410 200.522 409.725 199.224 409.174C197.926 408.623 196.923 407.699 196.215 406.401C195.546 405.064 195.212 403.274 195.212 401.032V384.453H190.02V380.264H195.212L195.861 373.066H200.168V380.264H208.782V384.453H200.168V401.032C200.168 402.881 200.541 404.139 201.289 404.808C202.036 405.437 203.354 405.752 205.242 405.752H208.428V410H203.826ZM227.717 410.708C224.963 410.708 222.485 410.079 220.283 408.82C218.08 407.522 216.349 405.713 215.091 403.392C213.832 401.032 213.203 398.298 213.203 395.191C213.203 392.005 213.832 389.252 215.091 386.931C216.389 384.571 218.139 382.762 220.342 381.503C222.584 380.205 225.081 379.556 227.835 379.556C230.667 379.556 233.164 380.205 235.328 381.503C237.53 382.762 239.261 384.571 240.52 386.931C241.818 389.252 242.467 391.985 242.467 395.132C242.467 398.279 241.818 401.032 240.52 403.392C239.222 405.713 237.471 407.522 235.269 408.82C233.066 410.079 230.549 410.708 227.717 410.708ZM227.776 406.46C229.467 406.46 231.04 406.047 232.496 405.221C233.951 404.356 235.131 403.077 236.036 401.386C236.94 399.695 237.393 397.61 237.393 395.132C237.393 392.615 236.94 390.53 236.036 388.878C235.17 387.187 234.01 385.928 232.555 385.102C231.139 384.237 229.565 383.804 227.835 383.804C226.183 383.804 224.609 384.237 223.115 385.102C221.659 385.928 220.479 387.187 219.575 388.878C218.709 390.53 218.277 392.615 218.277 395.132C218.277 397.61 218.709 399.695 219.575 401.386C220.479 403.077 221.64 404.356 223.056 405.221C224.511 406.047 226.084 406.46 227.776 406.46Z" fill="#424242"/>
<path d="M283.377 410.708C279.326 410.708 275.825 409.823 272.875 408.053C269.964 406.244 267.703 403.746 266.09 400.56C264.517 397.335 263.73 393.598 263.73 389.35C263.73 385.141 264.517 381.424 266.09 378.199C267.703 374.974 269.964 372.476 272.875 370.706C275.825 368.897 279.326 367.992 283.377 367.992C288.215 367.992 292.129 369.152 295.118 371.473C298.147 373.794 300.074 377.058 300.9 381.267H294.41C293.82 378.828 292.601 376.881 290.752 375.426C288.943 373.971 286.484 373.243 283.377 373.243C280.584 373.243 278.165 373.892 276.12 375.19C274.075 376.488 272.501 378.337 271.4 380.736C270.299 383.135 269.748 386.007 269.748 389.35C269.748 392.693 270.299 395.584 271.4 398.023C272.501 400.422 274.075 402.271 276.12 403.569C278.165 404.828 280.584 405.457 283.377 405.457C286.484 405.457 288.943 404.769 290.752 403.392C292.601 401.976 293.82 400.068 294.41 397.669H300.9C300.074 401.76 298.147 404.965 295.118 407.286C292.129 409.567 288.215 410.708 283.377 410.708ZM307.958 410V368.7H321.941C325.206 368.7 327.881 369.251 329.965 370.352C332.05 371.453 333.584 372.928 334.567 374.777C335.59 376.586 336.101 378.651 336.101 380.972C336.101 383.175 335.59 385.22 334.567 387.108C333.584 388.957 332.03 390.451 329.906 391.592C327.782 392.693 325.068 393.244 321.764 393.244H313.858V410H307.958ZM329.67 410L320.761 391.651H327.251L336.514 410H329.67ZM313.858 388.76H321.528C324.439 388.76 326.583 388.052 327.959 386.636C329.336 385.181 330.024 383.332 330.024 381.09C330.024 378.809 329.356 376.999 328.018 375.662C326.681 374.325 324.518 373.656 321.528 373.656H313.858V388.76ZM343.739 410V368.7H350.701L364.684 396.607L378.608 368.7H385.629V410H379.729V379.025L366.926 404.218H362.383L349.639 379.084V410H343.739Z" fill="#FF6603"/>
<path d="M224.152 232.189C224.48 230.81 224.859 229.407 225.286 228C223.657 229.13 222.19 230.334 220.922 231.593C210.557 241.851 211.971 255.958 224.233 265.442C225.39 266.341 226.646 267.195 228 268C227.675 267.321 227.38 266.636 227.102 265.955C222.401 254.966 221.405 243.952 224.152 232.189Z" fill="#172533"/>
<path d="M381 253.9C381 275.856 372.167 292.806 354.5 304.749C336.836 316.674 311.297 322.637 277.877 322.637H175.554C166.439 322.637 158.168 318.939 152.205 312.962C146.227 306.996 142.528 298.742 142.528 289.627C131.74 293.678 117.9 312.47 117.042 313.638C123.005 302.145 131.248 290.724 142.528 281.609C158.52 268.713 180.645 260.482 211.235 263.381C219.057 276.407 230.674 280.824 247.494 279.616C265.739 278.277 300.422 274.211 306.484 273.495C307.104 273.412 307.706 273.34 308.298 273.171C312.687 271.963 315.613 268.7 316.99 263.157C293.292 263.832 270.028 264.548 246.778 265.04C243.573 265.112 238.423 266.348 238.942 260.668C239.338 256.338 243.937 257.756 246.709 257.673C266.851 257.04 287.017 256.699 307.172 256.079C310.718 255.997 316.175 257.783 315.445 250.933C314.866 245.239 310.312 247.404 307.076 247.318C286.975 246.802 266.875 249.332 246.709 247.432C242.912 247.081 240.337 246.953 240.392 243.366C240.464 239.163 244.175 241.032 246.54 240.991C266.19 240.568 285.836 240.261 305.472 239.669C309.045 239.569 315.145 241.566 315.403 236.605C315.751 229.459 309.169 230.767 304.305 230.905C285.499 231.355 266.682 231.92 247.862 232.185C244.275 232.244 238.158 234.901 237.82 229.218C237.497 223.748 243.741 225.083 247.452 224.973C266.706 224.378 285.991 224.154 305.231 223.524C308.691 223.41 314.502 225.531 314.319 219.035C314.192 214.126 309.241 214.914 305.868 214.673C284.838 213.183 263.825 211.399 242.784 210.511C226.68 209.85 214.244 217.248 208.451 232.55C208.436 232.55 208.436 232.564 208.424 232.564C192.852 233.913 165.792 238.516 142.528 253.763C133.034 259.976 124.187 267.953 117 278.221C117 278.221 120.741 260.345 142.528 246.502V181.918C135.917 181.088 117.577 194.07 117.014 194.462C124.033 186.954 132.429 180.231 142.528 174.926C158.885 166.334 179.672 161.439 206.073 162.788C214.725 177.05 229.999 181.271 247.16 181.271C270.789 181.243 289.509 171.002 303.644 152.185C309.465 144.405 309.327 136.474 304.205 128.387C287.805 102.493 241.07 92.8712 215.961 110.579C211.686 113.605 206.159 117.881 205.37 122.339C205.16 123.451 204.934 124.463 204.653 125.403C198.111 126.022 170.503 129.3 142.528 143.07C133.85 147.345 125.144 152.633 117.014 159.16C117.337 158.681 126.888 144.66 139.054 137.937C140.221 137.345 141.36 136.797 142.528 136.25C142.528 100.761 171.291 71.9994 206.778 71.9994H270.717C302.701 71.9994 327.049 77.9067 343.77 89.7213C360.466 101.55 368.834 117.471 368.834 137.527C368.834 137.527 370.9 160.877 352.661 179.133C352.603 179.202 352.534 179.274 352.462 179.329C342.165 189.54 325.473 198.122 298.439 200.05C298.439 200.05 325.022 203.268 345.739 196.459C355.123 201.244 362.827 207.558 368.834 215.406C376.934 226.023 381 238.867 381 253.9Z" fill="#443627"/>
<path d="M294.814 137.586C285.062 119.472 265.381 109.9 245.598 112.096C228.849 113.967 219.315 120.872 215.065 135.284C215.027 135.438 214.972 135.589 214.934 135.743C215.017 135.695 215.094 135.637 215.181 135.589C242.013 118.788 267.876 121.254 294.814 137.586Z" fill="#172533"/>
</svg>
